PathFileType	4	(X/Y/Z)	./resultDataOpenSim/trcMotMarkerGrf/sub09/qtm-03-01.trc
DataRate	CameraRate	NumFrames	NumMarkers	Units	OrigDataRate	OrigDataStartFrame	OrigNumFrames
250.000000	250.000000	7	24	m	250.000000	299	477
Frame#	Time	L.Toe.Tip			R.Toe.Tip			L.Ankle.Lat			R.Ankle.Lat			L.Ankle.Med			R.Ankle.Med			L.Heel			R.Heel			L.Knee.Lat			R.Knee.Lat			L.Knee.Med			R.Knee.Med			L.Thigh.Upper			R.Thigh.Upper			L.ASIS			R.ASIS			V.Sacral			L.Acromium			R.Acromium			C7			L.Elbow			R.Elbow			L.Wrist.Lat			R.Wrist.Lat
		X1	Y1	Z1	X2	Y2	Z2	X3	Y3	Z3	X4	Y4	Z4	X5	Y5	Z5	X6	Y6	Z6	X7	Y7	Z7	X8	Y8	Z8	X9	Y9	Z9	X10	Y10	Z10	X11	Y11	Z11	X12	Y12	Z12	X13	Y13	Z13	X14	Y14	Z14	X15	Y15	Z15	X16	Y16	Z16	X17	Y17	Z17	X18	Y18	Z18	X19	Y19	Z19	X20	Y20	Z20	X21	Y21	Z21	X22	Y22	Z22	X23	Y23	Z23	X24	Y24	Z24

299	1.192	0.13773123	-0.0097482081	-0.028514431	0.97976892	0.054337519	0.09112193	0.043892019	0.10691786	-0.089771847	0.83214115	0.054733695	0.12931816	0.073905443	0.1118219	0.0038656708	0.83368204	0.093760572	0.037190328	-0.030897515	0.12037874	-0.046442686	0.76612332	0.028020011	0.081175082	0.3148506	0.43154208	-0.12258024	0.74746793	0.50922029	0.16958679	0.32043066	0.42184128	0.0025358856	0.73053255	0.48381709	0.046448895	0.45269679	0.81935883	-0.14501876	0.51443688	0.83217597	0.22370074	0.56440271	0.89295286	-0.10244964	0.58058868	0.91565943	0.13911964	0.40908908	0.96044012	0.033714897	0.58603509	1.3573927	-0.13323659	0.54893626	1.3609739	0.19612483	0.50178772	1.4111929	0.026362453	0.467419	1.0029507	-0.21794226	0.38405752	1.0375672	0.27098854	0.68057763	0.83841789	-0.18511065	0.48231404	0.78983002	0.32369584
300	1.196	0.13811031	-0.0094721692	-0.028882655	0.98090387	0.050875254	0.090552123	0.047700357	0.11013523	-0.091119141	0.83310168	0.054235279	0.12948295	0.078511863	0.11429312	0.0022420405	0.83500129	0.093419238	0.037413296	-0.026107591	0.12535806	-0.047112516	0.76667649	0.028600327	0.081538709	0.32385994	0.43104773	-0.12337709	0.75492778	0.51046172	0.16969368	0.32858954	0.42079688	0.0021329679	0.73715941	0.48564382	0.046663132	0.46021676	0.81903155	-0.1442609	0.52112291	0.8336847	0.22440325	0.5718174	0.89284645	-0.10150939	0.58746998	0.91664723	0.1398988	0.4160287	0.96085742	0.033665529	0.59285509	1.3576398	-0.13274783	0.55561755	1.3613231	0.19662214	0.50841	1.4113724	0.026785522	0.47363154	1.0034631	-0.21729774	0.3913813	1.0375602	0.27130638	0.6854644	0.83732694	-0.18493291	0.49018036	0.78998389	0.32358974
301	1.2	0.1386842	-0.0090106032	-0.029259844	0.9821879	0.047989353	0.089729172	0.05167976	0.11345229	-0.092377449	0.8343429	0.053807424	0.12939012	0.083503413	0.11685612	0.00064219745	0.83628933	0.09303552	0.037335738	-0.020963876	0.13050726	-0.047553268	0.76735585	0.029168426	0.081830819	0.33329881	0.43048884	-0.12438043	0.76207558	0.51120723	0.16989725	0.33721164	0.41962694	0.0015136241	0.74366002	0.48727108	0.046876252	0.46772974	0.81875762	-0.14341949	0.52772386	0.83518177	0.22516671	0.57895865	0.89278725	-0.10052186	0.59437728	0.91765334	0.14067703	0.42239063	0.9613782	0.032795054	0.59969861	1.3579326	-0.13224899	0.56226429	1.3617405	0.19708366	0.5149688	1.4115687	0.027179771	0.47982734	1.0040829	-0.21665023	0.39854081	1.0376018	0.27145687	0.6902938	0.83625662	-0.18476006	0.49811206	0.79019654	0.32347645
302	1.204	0.13952618	-0.0083288566	-0.029638223	0.98357695	0.045797309	0.088729656	0.055915064	0.1168817	-0.093508516	0.835745	0.053523765	0.12906542	0.088868118	0.11950405	-0.00089567176	0.83757072	0.092646269	0.036938862	-0.015466054	0.13580911	-0.047791339	0.76811688	0.029688933	0.081938881	0.34311686	0.42984021	-0.12554572	0.76889381	0.51157003	0.17014873	0.34670304	0.41832047	0.00048718723	0.75001181	0.48863715	0.047112736	0.47523866	0.81845885	-0.14255176	0.53427864	0.83662578	0.22596158	0.58585807	0.89274731	-0.099474618	0.60127739	0.91867661	0.14143313	0.42839617	0.96187226	0.031677494	0.60655757	1.3582573	-0.13174737	0.56886607	1.3622123	0.19751625	0.52146826	1.4117858	0.027552697	0.4860032	1.0047934	-0.21601089	0.40561144	1.0376621	0.27156033	0.6950629	0.83520794	-0.18460046	0.50610734	0.79045787	0.32336185
303	1.208	0.1406313	-0.007424264	-0.030019733	0.98485177	0.044256581	0.087674432	0.060478292	0.12047834	-0.094482611	0.83697069	0.053411567	0.12862003	0.094550246	0.12226122	-0.0023151487	0.83875556	0.092267919	0.036335629	-0.0096094231	0.14128551	-0.047906238	0.76884038	0.030115018	0.081844692	0.35316264	0.42910458	-0.12677546	0.77541029	0.51165758	0.17041489	0.35701739	0.41681048	-0.00088348053	0.75621268	0.48971711	0.047366182	0.48274315	0.81809526	-0.1417026	0.54081121	0.83799722	0.22676626	0.59258895	0.89273761	-0.098365078	0.60813251	0.91973506	0.14215719	0.43469036	0.96223923	0.031285956	0.6134247	1.3586109	-0.13124655	0.57540708	1.3627328	0.1979208	0.52792326	1.4120462	0.027910351	0.49215423	1.0055766	-0.21538282	0.41273013	1.0377258	0.27172506	0.69976703	0.83418364	-0.1844626	0.51415641	0.79076449	0.32324511
304	1.212	0.14195569	-0.0063039817	-0.030423023	0.98582398	0.043196722	0.086700724	0.06540121	0.12429456	-0.095306872	0.837787	0.053422748	0.12816265	0.10048287	0.12517304	-0.0035607274	0.83973131	0.091903478	0.035698961	-0.0033870236	0.14697746	-0.048015421	0.76941612	0.030422366	0.081654242	0.36326748	0.42831953	-0.12798574	0.78167532	0.5115732	0.17066709	0.36784523	0.41503105	-0.0024121913	0.76229942	0.49052506	0.047588662	0.49023951	0.8176831	-0.14087987	0.54733595	0.83928997	0.2275777	0.59923976	0.89279101	-0.097208236	0.61491442	0.92084311	0.14285918	0.4416165	0.96250818	0.031969364	0.62029146	1.3590001	-0.13074678	0.5818726	1.3633068	0.19829763	0.5343456	1.4123805	0.028251404	0.49828175	1.0064174	-0.21476308	0.41995454	1.0378076	0.27196783	0.70440473	0.83318617	-0.18434865	0.52224846	0.79111672	0.32312261
305	1.216	0.14346603	-0.0049723277	-0.030867792	0.98648767	0.042422665	0.085897282	0.070690627	0.12834495	-0.096015318	0.83827677	0.053458559	0.12772969	0.10661723	0.12826785	-0.0046063354	0.84044615	0.091553174	0.035152078	0.0032062906	0.15290379	-0.048196377	0.76981164	0.030619645	0.081503458	0.37340307	0.42753822	-0.12916197	0.78772223	0.51140543	0.1708794	0.37892733	0.41305251	-0.003964626	0.76833021	0.49110218	0.047725344	0.49773091	0.81726312	-0.14008889	0.55386032	0.84049797	0.22840094	0.60590085	0.89292946	-0.096033503	0.62161468	0.9219922	0.14356753	0.44893425	0.9628005	0.033200698	0.62714486	1.3594294	-0.13024894	0.58826418	1.3639353	0.19865482	0.54073837	1.412808	0.028566478	0.50439777	1.007302	-0.21414902	0.42720396	1.0379236	0.27223786	0.70898126	0.83221396	-0.18425135	0.53037969	0.79151376	0.32299456
